HIERARCHY
ROOT Hips
{
	OFFSET 0.000000 88.474243 0.000000
	CHANNELS 6 Xposition Yposition Zposition Zrotation Yrotation Xrotation 
	JOINT Hips_Spine
	{
		OFFSET 0.000000 0.000000 0.000000
		CHANNELS 3 Zrotation Yrotation Xrotation
		JOINT Spine
		{
			OFFSET 0.005100 8.711998 -0.691000
			CHANNELS 3 Zrotation Yrotation Xrotation
			JOINT Spine1
			{
				OFFSET -0.009200 8.660301 -1.275000
				CHANNELS 3 Zrotation Yrotation Xrotation
				JOINT Spine2
				{
					OFFSET 0.006300 9.852501 -1.857000
					CHANNELS 3 Zrotation Yrotation Xrotation
					JOINT Spine2_Neck
					{
						OFFSET 0.000000 0.000000 0.000000
						CHANNELS 3 Zrotation Yrotation Xrotation
						JOINT Neck
						{
							OFFSET 0.016300 11.420799 -0.263300
							CHANNELS 3 Zrotation Yrotation Xrotation
							End Site #name: Head
							{
								OFFSET -0.019200 9.262405 2.362500
							}
						}
					}
					JOINT Spine2_LeftShoulder
					{
						OFFSET 0.000000 0.000000 0.000000
						CHANNELS 3 Zrotation Yrotation Xrotation
						JOINT LeftShoulder
						{
							OFFSET 5.616900 6.732201 -0.345700
							CHANNELS 3 Zrotation Yrotation Xrotation
							JOINT LeftArm
							{
								OFFSET 10.664888 -0.183372 -2.440700
								CHANNELS 3 Zrotation Yrotation Xrotation
								JOINT LeftForeArm
								{
									OFFSET 27.459126 0.000000 0.000000
									CHANNELS 3 Zrotation Yrotation Xrotation
									End Site #name: LeftHand
									{
										OFFSET 21.306858 0.000000 0.000000
									}
								}
							}
						}
					}
					JOINT Spine2_RightShoulder
					{
						OFFSET 0.000000 0.000000 0.000000
						CHANNELS 3 Zrotation Yrotation Xrotation
						JOINT RightShoulder
						{
							OFFSET -5.580300 6.737503 -0.344400
							CHANNELS 3 Zrotation Yrotation Xrotation
							JOINT RightArm
							{
								OFFSET -10.679335 -0.188484 -2.383900
								CHANNELS 3 Zrotation Yrotation Xrotation
								JOINT RightForeArm
								{
									OFFSET -27.503529 0.000000 0.000000
									CHANNELS 3 Zrotation Yrotation Xrotation
									End Site #name: RightHand
									{
										OFFSET -21.306808 0.000000 0.000000
									}
								}
							}
						}
					}
				}
			}
		}
	}
	JOINT Hips_LeftUpLeg
	{
		OFFSET 0.000000 0.000000 0.000000
		CHANNELS 3 Zrotation Yrotation Xrotation
		JOINT LeftUpLeg
		{
			OFFSET 6.857700 -6.739601 0.312100
			CHANNELS 3 Zrotation Yrotation Xrotation
			JOINT LeftLeg
			{
				OFFSET -0.367590 -34.731552 -4.572400
				CHANNELS 3 Zrotation Yrotation Xrotation
				End Site #name: LeftFoot
				{
					OFFSET 0.367590 -34.656704 -6.067400
				}
			}
		}
	}
	JOINT Hips_RightUpLeg
	{
		OFFSET 0.000000 0.000000 0.000000
		CHANNELS 3 Zrotation Yrotation Xrotation
		JOINT RightUpLeg
		{
			OFFSET -6.876100 -6.733299 0.301000
			CHANNELS 3 Zrotation Yrotation Xrotation
			JOINT RightLeg
			{
				OFFSET 0.347353 -34.795158 -4.515900
				CHANNELS 3 Zrotation Yrotation Xrotation
				End Site #name: RightFoot
				{
					OFFSET -0.347353 -34.589367 -6.070300
				}
			}
		}
	}
}
MOTION
Frames: 10
Frame Time: 0.041667
-0.330802 14.919609 69.134655 -9.023204 -52.983227 6.066872 0.000000 0.000000 0.000000 9.396302 8.718168 10.653891 1.936505 2.903529 2.814053 0.000000 0.000000 0.000000 1.913450 2.917110 2.820407 1.202420 4.830358 -3.710026 1.913450 2.917110 2.820407 0.341822 3.503532 0.000004 -81.427794 -45.601333 -23.348304 179.999976 -70.899722 -179.999965 1.913450 2.917110 2.820407 4.669276 2.458520 0.731203 58.773294 52.757327 23.512790 -179.999970 63.058282 179.999995 0.000000 0.000000 0.000000 16.817076 42.610806 -29.474563 -3.315442 5.023639 104.519082 0.000000 0.000000 0.000000 -17.056926 -11.844048 -37.095927 -9.143744 5.499426 94.191546 
0.508531 15.247650 72.503201 -8.935392 -54.687680 6.382610 0.000000 0.000000 0.000000 8.991714 9.914324 12.883466 1.633858 3.306935 3.313574 0.000000 0.000000 0.000000 1.602007 3.322494 3.318891 0.547993 5.277305 -2.572319 1.602007 3.322494 3.318891 0.341826 3.503522 0.000009 -81.237654 -46.367238 -23.248106 179.999974 -71.148335 -179.999990 1.602007 3.322494 3.318891 5.262045 3.185877 0.854906 57.981297 53.203063 21.656720 -179.999954 62.934054 179.999996 0.000000 0.000000 0.000000 16.063617 46.458901 -42.648610 -6.936910 6.176687 113.907205 0.000000 0.000000 0.000000 -17.267388 -17.454856 -45.901503 -8.256408 5.758526 105.728538 
1.484839 15.150108 75.826932 -6.801295 -56.608706 5.919524 0.000000 0.000000 0.000000 7.670609 11.177978 14.706411 1.306635 3.690538 3.871844 0.000000 0.000000 0.000000 1.268822 3.702422 3.878214 0.043132 5.811302 -1.654008 1.268822 3.702422 3.878214 0.341825 3.503523 0.000002 -80.315708 -46.434763 -24.208589 179.999937 -70.939815 179.999997 1.268822 3.702422 3.878214 5.230366 3.481545 0.888804 57.454758 54.674574 20.719349 -179.999975 63.426005 179.999988 0.000000 0.000000 0.000000 12.141888 48.975845 -57.210411 -7.265348 5.918801 115.420480 0.000000 0.000000 0.000000 -17.609700 -23.900929 -55.928367 -7.789140 6.502781 115.066198 
2.421673 14.583541 79.048634 -2.425899 -58.008238 3.824123 0.000000 0.000000 0.000000 5.666884 12.433985 16.016891 0.924107 4.174692 4.497421 0.000000 0.000000 0.000000 0.884154 4.172128 4.511661 -0.521421 5.881819 -1.096905 0.884154 4.172128 4.511661 0.341819 3.503513 -0.000006 -79.858367 -46.602316 -24.248551 179.999997 -71.070148 179.999973 0.884154 4.172128 4.511661 4.842249 3.262209 0.833538 57.178648 55.679746 19.950000 -179.999976 63.690687 179.999997 0.000000 0.000000 0.000000 6.731408 49.648170 -68.314413 -8.126356 4.677433 109.375848 0.000000 0.000000 0.000000 -16.669053 -30.562944 -66.910712 -7.194249 7.864459 122.509179 
3.194394 13.290412 82.314373 2.436367 -58.877490 0.795364 0.000000 0.000000 0.000000 3.991641 13.601469 17.191265 0.552326 4.786313 5.125577 0.000000 0.000000 0.000000 0.510609 4.763870 5.152643 -0.622486 5.492687 -1.054872 0.510609 4.763870 5.152643 0.341828 3.503492 0.000002 -80.033064 -47.107141 -23.010554 179.999947 -71.559779 -179.999998 0.510609 4.763870 5.152643 4.315800 2.667997 0.725878 56.987813 55.847458 18.962825 179.999983 63.441921 179.999984 0.000000 0.000000 0.000000 2.127137 49.596727 -72.842322 -9.234738 2.475580 97.587353 0.000000 0.000000 0.000000 -12.645058 -36.000576 -78.553200 -6.496049 9.531999 128.042526 
3.750084 11.072097 85.933094 6.025567 -59.733868 -1.980120 0.000000 0.000000 0.000000 3.314179 14.311836 18.334650 0.345225 5.294504 5.637565 0.000000 0.000000 0.000000 0.302740 5.254412 5.677283 -0.336087 5.101001 -0.953386 0.302740 5.254412 5.677283 0.341824 3.503484 -0.000004 -79.915744 -47.146727 -22.091409 179.999926 -72.002715 -179.999961 0.302740 5.254412 5.677283 3.478913 1.644475 0.560980 57.480340 56.370889 18.864260 179.999990 63.478694 179.999976 0.000000 0.000000 0.000000 -0.770736 49.802245 -71.149646 -9.798289 -1.330943 80.518884 0.000000 0.000000 0.000000 -5.622430 -38.582916 -89.539430 -5.894599 10.896868 131.257858 
4.101290 8.145172 90.035198 8.191803 -61.011283 -4.144784 0.000000 0.000000 0.000000 3.157208 14.113840 19.170011 0.295757 5.459403 5.959409 0.000000 0.000000 0.000000 0.255257 5.405562 6.007795 0.247657 5.136446 -0.850173 0.255257 5.405562 6.007795 0.341833 3.503473 0.000005 -78.684465 -45.627113 -22.877081 179.999964 -71.840773 -179.999999 0.255257 5.405562 6.007795 2.549085 0.538635 0.401121 58.869712 58.010352 20.398683 -179.999943 64.403392 -179.999956 0.000000 0.000000 0.000000 -2.423704 50.908819 -64.441016 -7.913512 -6.555743 60.149246 0.000000 0.000000 0.000000 1.281892 -37.962969 -96.674813 -5.899952 11.294917 131.567416 
4.278356 4.514366 94.669781 9.044786 -62.814400 -5.547575 0.000000 0.000000 0.000000 3.024356 12.969523 19.472436 0.296480 5.201090 6.091480 0.000000 0.000000 0.000000 0.259114 5.142272 6.138699 1.274468 5.623398 -0.579229 0.259114 5.142272 6.138699 0.341815 3.503479 -0.000007 -76.302152 -42.395110 -25.573809 179.999952 -70.084969 -179.999997 0.259114 5.142272 6.138699 2.214592 0.211761 0.356308 60.613086 60.317777 22.885871 -179.999974 65.740136 -179.999993 0.000000 0.000000 0.000000 -3.734414 52.792845 -55.857885 -2.412911 -10.985448 39.533839 0.000000 0.000000 0.000000 4.087700 -35.358657 -97.003128 -6.870491 9.754111 128.521305 
4.266657 0.113555 99.660862 9.814739 -64.477126 -7.005984 0.000000 0.000000 0.000000 2.357988 11.093677 19.275224 0.258450 4.656345 6.119887 0.000000 0.000000 0.000000 0.223500 4.601176 6.156694 2.551096 6.277934 -0.731465 0.223500 4.601176 6.156694 0.341827 3.503479 0.000005 -73.065828 -38.584689 -29.890426 179.999987 -66.235243 -179.999984 0.223500 4.601176 6.156694 2.670115 0.931040 0.448686 61.936742 62.226998 25.421652 -179.999952 66.823041 -179.999990 0.000000 0.000000 0.000000 -4.100666 54.540877 -47.834974 3.387382 -11.964989 22.929090 0.000000 0.000000 0.000000 3.166066 -30.978914 -91.688987 -6.187097 4.807435 121.216285 
4.367666 -4.846871 104.815221 10.733544 -65.184406 -8.344205 0.000000 0.000000 0.000000 1.511330 9.152826 18.831126 0.151189 4.024529 6.068926 0.000000 0.000000 0.000000 0.112989 3.987312 6.087099 3.735694 6.696227 -2.132039 0.112989 3.987312 6.087099 0.341827 3.503486 0.000006 -69.633637 -36.322133 -34.275310 179.999929 -62.609155 -179.999985 0.112989 3.987312 6.087099 3.344924 1.858228 0.579202 62.669248 62.899370 27.474094 -179.999930 67.821062 -179.999968 0.000000 0.000000 0.000000 -5.379120 54.149547 -49.924161 4.982069 -13.480968 26.993385 0.000000 0.000000 0.000000 1.203596 -24.233681 -83.452492 -4.980706 1.377793 108.765964 
